<mxfile host="app.diagrams.net" modified="2024-02-15T14:51:53.130Z" agent="Mozilla/5.0 (Macintosh; Intel Mac OS X 10_15_7) AppleWebKit/537.36 (KHTML, like Gecko) Chrome/121.0.0.0 Safari/537.36" etag="HypVH_UDiEVcm2Qmx2fU" version="23.1.4" type="google">
  <diagram id="R4igt5o9xOAcM-P4blNC" name="Page-2">
    <mxGraphModel grid="1" page="1" gridSize="10" guides="1" tooltips="1" connect="1" arrows="1" fold="1" pageScale="1" pageWidth="827" pageHeight="1169" math="0" shadow="0">
      <root>
        <mxCell id="0" />
        <mxCell id="1" parent="0" />
        <mxCell id="zq9i1RVBZNLMBS9eF87K-2" value="CarController" style="swimlane;fontStyle=1;align=center;verticalAlign=top;childLayout=stackLayout;horizontal=1;startSize=26;horizontalStack=0;resizeParent=1;resizeParentMax=0;resizeLast=0;collapsible=1;marginBottom=0;whiteSpace=wrap;html=1;" vertex="1" parent="1">
          <mxGeometry x="210" y="990" width="200" height="372" as="geometry" />
        </mxCell>
        <mxCell id="zq9i1RVBZNLMBS9eF87K-3" value="- delay: int" style="text;strokeColor=none;fillColor=none;align=left;verticalAlign=top;spacingLeft=4;spacingRight=4;overflow=hidden;rotatable=0;points=[[0,0.5],[1,0.5]];portConstraint=eastwest;whiteSpace=wrap;html=1;" vertex="1" parent="zq9i1RVBZNLMBS9eF87K-2">
          <mxGeometry y="26" width="200" height="26" as="geometry" />
        </mxCell>
        <mxCell id="zq9i1RVBZNLMBS9eF87K-7" value="- timer: Timer" style="text;strokeColor=none;fillColor=none;align=left;verticalAlign=top;spacingLeft=4;spacingRight=4;overflow=hidden;rotatable=0;points=[[0,0.5],[1,0.5]];portConstraint=eastwest;whiteSpace=wrap;html=1;" vertex="1" parent="zq9i1RVBZNLMBS9eF87K-2">
          <mxGeometry y="52" width="200" height="26" as="geometry" />
        </mxCell>
        <mxCell id="zq9i1RVBZNLMBS9eF87K-8" value="~&amp;nbsp;frame: CarView" style="text;strokeColor=none;fillColor=none;align=left;verticalAlign=top;spacingLeft=4;spacingRight=4;overflow=hidden;rotatable=0;points=[[0,0.5],[1,0.5]];portConstraint=eastwest;whiteSpace=wrap;html=1;" vertex="1" parent="zq9i1RVBZNLMBS9eF87K-2">
          <mxGeometry y="78" width="200" height="26" as="geometry" />
        </mxCell>
        <mxCell id="zq9i1RVBZNLMBS9eF87K-9" value="&lt;u&gt;~&amp;nbsp;cars: ArrayList&amp;lt;Vehicle&amp;gt;&lt;/u&gt;" style="text;strokeColor=none;fillColor=none;align=left;verticalAlign=top;spacingLeft=4;spacingRight=4;overflow=hidden;rotatable=0;points=[[0,0.5],[1,0.5]];portConstraint=eastwest;whiteSpace=wrap;html=1;" vertex="1" parent="zq9i1RVBZNLMBS9eF87K-2">
          <mxGeometry y="104" width="200" height="26" as="geometry" />
        </mxCell>
        <mxCell id="zq9i1RVBZNLMBS9eF87K-10" value="&lt;u&gt;~&amp;nbsp;garage: Garage&amp;lt;Volvo&amp;gt;240&lt;/u&gt;" style="text;strokeColor=none;fillColor=none;align=left;verticalAlign=top;spacingLeft=4;spacingRight=4;overflow=hidden;rotatable=0;points=[[0,0.5],[1,0.5]];portConstraint=eastwest;whiteSpace=wrap;html=1;" vertex="1" parent="zq9i1RVBZNLMBS9eF87K-2">
          <mxGeometry y="130" width="200" height="26" as="geometry" />
        </mxCell>
        <mxCell id="zq9i1RVBZNLMBS9eF87K-4" value="" style="line;strokeWidth=1;fillColor=none;align=left;verticalAlign=middle;spacingTop=-1;spacingLeft=3;spacingRight=3;rotatable=0;labelPosition=right;points=[];portConstraint=eastwest;strokeColor=inherit;" vertex="1" parent="zq9i1RVBZNLMBS9eF87K-2">
          <mxGeometry y="156" width="200" height="8" as="geometry" />
        </mxCell>
        <mxCell id="zq9i1RVBZNLMBS9eF87K-5" value="+ gas(int): void" style="text;strokeColor=none;fillColor=none;align=left;verticalAlign=top;spacingLeft=4;spacingRight=4;overflow=hidden;rotatable=0;points=[[0,0.5],[1,0.5]];portConstraint=eastwest;whiteSpace=wrap;html=1;" vertex="1" parent="zq9i1RVBZNLMBS9eF87K-2">
          <mxGeometry y="164" width="200" height="26" as="geometry" />
        </mxCell>
        <mxCell id="gwuU5ODGsPlOElXGlEPq-1" value="+ brake(int): void" style="text;strokeColor=none;fillColor=none;align=left;verticalAlign=top;spacingLeft=4;spacingRight=4;overflow=hidden;rotatable=0;points=[[0,0.5],[1,0.5]];portConstraint=eastwest;whiteSpace=wrap;html=1;" vertex="1" parent="zq9i1RVBZNLMBS9eF87K-2">
          <mxGeometry y="190" width="200" height="26" as="geometry" />
        </mxCell>
        <mxCell id="gwuU5ODGsPlOElXGlEPq-2" value="+ turboOn(): void" style="text;strokeColor=none;fillColor=none;align=left;verticalAlign=top;spacingLeft=4;spacingRight=4;overflow=hidden;rotatable=0;points=[[0,0.5],[1,0.5]];portConstraint=eastwest;whiteSpace=wrap;html=1;" vertex="1" parent="zq9i1RVBZNLMBS9eF87K-2">
          <mxGeometry y="216" width="200" height="26" as="geometry" />
        </mxCell>
        <mxCell id="gwuU5ODGsPlOElXGlEPq-3" value="+ turboOff(): void" style="text;strokeColor=none;fillColor=none;align=left;verticalAlign=top;spacingLeft=4;spacingRight=4;overflow=hidden;rotatable=0;points=[[0,0.5],[1,0.5]];portConstraint=eastwest;whiteSpace=wrap;html=1;" vertex="1" parent="zq9i1RVBZNLMBS9eF87K-2">
          <mxGeometry y="242" width="200" height="26" as="geometry" />
        </mxCell>
        <mxCell id="gwuU5ODGsPlOElXGlEPq-4" value="+ liftBed(): void" style="text;strokeColor=none;fillColor=none;align=left;verticalAlign=top;spacingLeft=4;spacingRight=4;overflow=hidden;rotatable=0;points=[[0,0.5],[1,0.5]];portConstraint=eastwest;whiteSpace=wrap;html=1;" vertex="1" parent="zq9i1RVBZNLMBS9eF87K-2">
          <mxGeometry y="268" width="200" height="26" as="geometry" />
        </mxCell>
        <mxCell id="gwuU5ODGsPlOElXGlEPq-5" value="+ lowerBed(): void" style="text;strokeColor=none;fillColor=none;align=left;verticalAlign=top;spacingLeft=4;spacingRight=4;overflow=hidden;rotatable=0;points=[[0,0.5],[1,0.5]];portConstraint=eastwest;whiteSpace=wrap;html=1;" vertex="1" parent="zq9i1RVBZNLMBS9eF87K-2">
          <mxGeometry y="294" width="200" height="26" as="geometry" />
        </mxCell>
        <mxCell id="gwuU5ODGsPlOElXGlEPq-6" value="+ startAllCars(): void" style="text;strokeColor=none;fillColor=none;align=left;verticalAlign=top;spacingLeft=4;spacingRight=4;overflow=hidden;rotatable=0;points=[[0,0.5],[1,0.5]];portConstraint=eastwest;whiteSpace=wrap;html=1;" vertex="1" parent="zq9i1RVBZNLMBS9eF87K-2">
          <mxGeometry y="320" width="200" height="26" as="geometry" />
        </mxCell>
        <mxCell id="gwuU5ODGsPlOElXGlEPq-7" value="+ stopAllCars(): void" style="text;strokeColor=none;fillColor=none;align=left;verticalAlign=top;spacingLeft=4;spacingRight=4;overflow=hidden;rotatable=0;points=[[0,0.5],[1,0.5]];portConstraint=eastwest;whiteSpace=wrap;html=1;" vertex="1" parent="zq9i1RVBZNLMBS9eF87K-2">
          <mxGeometry y="346" width="200" height="26" as="geometry" />
        </mxCell>
        <mxCell id="jZX_VQ2PAZwI73pIx6gz-1" value="CarView" style="swimlane;fontStyle=1;align=center;verticalAlign=top;childLayout=stackLayout;horizontal=1;startSize=26;horizontalStack=0;resizeParent=1;resizeParentMax=0;resizeLast=0;collapsible=1;marginBottom=0;whiteSpace=wrap;html=1;" vertex="1" parent="1">
          <mxGeometry x="630" y="1146" width="270" height="216" as="geometry" />
        </mxCell>
        <mxCell id="jZX_VQ2PAZwI73pIx6gz-2" value="~ carC: CarController" style="text;strokeColor=none;fillColor=none;align=left;verticalAlign=top;spacingLeft=4;spacingRight=4;overflow=hidden;rotatable=0;points=[[0,0.5],[1,0.5]];portConstraint=eastwest;whiteSpace=wrap;html=1;" vertex="1" parent="jZX_VQ2PAZwI73pIx6gz-1">
          <mxGeometry y="26" width="270" height="26" as="geometry" />
        </mxCell>
        <mxCell id="OE6Sxg3GEj1yfLS4yZ16-30" value="~&amp;nbsp;drawPanel: DrawPanel" style="text;strokeColor=none;fillColor=none;align=left;verticalAlign=top;spacingLeft=4;spacingRight=4;overflow=hidden;rotatable=0;points=[[0,0.5],[1,0.5]];portConstraint=eastwest;whiteSpace=wrap;html=1;" vertex="1" parent="jZX_VQ2PAZwI73pIx6gz-1">
          <mxGeometry y="52" width="270" height="26" as="geometry" />
        </mxCell>
        <mxCell id="OE6Sxg3GEj1yfLS4yZ16-31" value="~ gasAmount: int" style="text;strokeColor=none;fillColor=none;align=left;verticalAlign=top;spacingLeft=4;spacingRight=4;overflow=hidden;rotatable=0;points=[[0,0.5],[1,0.5]];portConstraint=eastwest;whiteSpace=wrap;html=1;" vertex="1" parent="jZX_VQ2PAZwI73pIx6gz-1">
          <mxGeometry y="78" width="270" height="26" as="geometry" />
        </mxCell>
        <mxCell id="jZX_VQ2PAZwI73pIx6gz-3" value="" style="line;strokeWidth=1;fillColor=none;align=left;verticalAlign=middle;spacingTop=-1;spacingLeft=3;spacingRight=3;rotatable=0;labelPosition=right;points=[];portConstraint=eastwest;strokeColor=inherit;" vertex="1" parent="jZX_VQ2PAZwI73pIx6gz-1">
          <mxGeometry y="104" width="270" height="8" as="geometry" />
        </mxCell>
        <mxCell id="jZX_VQ2PAZwI73pIx6gz-4" value="+ getX(): int" style="text;strokeColor=none;fillColor=none;align=left;verticalAlign=top;spacingLeft=4;spacingRight=4;overflow=hidden;rotatable=0;points=[[0,0.5],[1,0.5]];portConstraint=eastwest;whiteSpace=wrap;html=1;" vertex="1" parent="jZX_VQ2PAZwI73pIx6gz-1">
          <mxGeometry y="112" width="270" height="26" as="geometry" />
        </mxCell>
        <mxCell id="OE6Sxg3GEj1yfLS4yZ16-32" value="+ getY(): int" style="text;strokeColor=none;fillColor=none;align=left;verticalAlign=top;spacingLeft=4;spacingRight=4;overflow=hidden;rotatable=0;points=[[0,0.5],[1,0.5]];portConstraint=eastwest;whiteSpace=wrap;html=1;" vertex="1" parent="jZX_VQ2PAZwI73pIx6gz-1">
          <mxGeometry y="138" width="270" height="26" as="geometry" />
        </mxCell>
        <mxCell id="OE6Sxg3GEj1yfLS4yZ16-33" value="+ CarView(framename: String, cc: CarController)" style="text;strokeColor=none;fillColor=none;align=left;verticalAlign=top;spacingLeft=4;spacingRight=4;overflow=hidden;rotatable=0;points=[[0,0.5],[1,0.5]];portConstraint=eastwest;whiteSpace=wrap;html=1;" vertex="1" parent="jZX_VQ2PAZwI73pIx6gz-1">
          <mxGeometry y="164" width="270" height="26" as="geometry" />
        </mxCell>
        <mxCell id="OE6Sxg3GEj1yfLS4yZ16-34" value="- initComponents(title: String): void" style="text;strokeColor=none;fillColor=none;align=left;verticalAlign=top;spacingLeft=4;spacingRight=4;overflow=hidden;rotatable=0;points=[[0,0.5],[1,0.5]];portConstraint=eastwest;whiteSpace=wrap;html=1;" vertex="1" parent="jZX_VQ2PAZwI73pIx6gz-1">
          <mxGeometry y="190" width="270" height="26" as="geometry" />
        </mxCell>
        <mxCell id="cYzZMKrLPD-0MxN3_8T5-1" value="&lt;i&gt;Vehicle&lt;/i&gt;" style="swimlane;fontStyle=1;align=center;verticalAlign=top;childLayout=stackLayout;horizontal=1;startSize=26;horizontalStack=0;resizeParent=1;resizeParentMax=0;resizeLast=0;collapsible=1;marginBottom=0;whiteSpace=wrap;html=1;" vertex="1" parent="1">
          <mxGeometry x="235" y="300" width="150" height="476" as="geometry" />
        </mxCell>
        <mxCell id="cYzZMKrLPD-0MxN3_8T5-2" value="- nrDoors: int" style="text;strokeColor=none;fillColor=none;align=left;verticalAlign=top;spacingLeft=4;spacingRight=4;overflow=hidden;rotatable=0;points=[[0,0.5],[1,0.5]];portConstraint=eastwest;whiteSpace=wrap;html=1;" vertex="1" parent="cYzZMKrLPD-0MxN3_8T5-1">
          <mxGeometry y="26" width="150" height="26" as="geometry" />
        </mxCell>
        <mxCell id="cYzZMKrLPD-0MxN3_8T5-5" value="- enginePower: double" style="text;strokeColor=none;fillColor=none;align=left;verticalAlign=top;spacingLeft=4;spacingRight=4;overflow=hidden;rotatable=0;points=[[0,0.5],[1,0.5]];portConstraint=eastwest;whiteSpace=wrap;html=1;" vertex="1" parent="cYzZMKrLPD-0MxN3_8T5-1">
          <mxGeometry y="52" width="150" height="26" as="geometry" />
        </mxCell>
        <mxCell id="cYzZMKrLPD-0MxN3_8T5-6" value="- currentSpeed: double" style="text;strokeColor=none;fillColor=none;align=left;verticalAlign=top;spacingLeft=4;spacingRight=4;overflow=hidden;rotatable=0;points=[[0,0.5],[1,0.5]];portConstraint=eastwest;whiteSpace=wrap;html=1;" vertex="1" parent="cYzZMKrLPD-0MxN3_8T5-1">
          <mxGeometry y="78" width="150" height="26" as="geometry" />
        </mxCell>
        <mxCell id="cYzZMKrLPD-0MxN3_8T5-7" value="- color: Color" style="text;strokeColor=none;fillColor=none;align=left;verticalAlign=top;spacingLeft=4;spacingRight=4;overflow=hidden;rotatable=0;points=[[0,0.5],[1,0.5]];portConstraint=eastwest;whiteSpace=wrap;html=1;" vertex="1" parent="cYzZMKrLPD-0MxN3_8T5-1">
          <mxGeometry y="104" width="150" height="26" as="geometry" />
        </mxCell>
        <mxCell id="cYzZMKrLPD-0MxN3_8T5-8" value="- modelName: String" style="text;strokeColor=none;fillColor=none;align=left;verticalAlign=top;spacingLeft=4;spacingRight=4;overflow=hidden;rotatable=0;points=[[0,0.5],[1,0.5]];portConstraint=eastwest;whiteSpace=wrap;html=1;" vertex="1" parent="cYzZMKrLPD-0MxN3_8T5-1">
          <mxGeometry y="130" width="150" height="26" as="geometry" />
        </mxCell>
        <mxCell id="cYzZMKrLPD-0MxN3_8T5-9" value="- position: Point" style="text;strokeColor=none;fillColor=none;align=left;verticalAlign=top;spacingLeft=4;spacingRight=4;overflow=hidden;rotatable=0;points=[[0,0.5],[1,0.5]];portConstraint=eastwest;whiteSpace=wrap;html=1;" vertex="1" parent="cYzZMKrLPD-0MxN3_8T5-1">
          <mxGeometry y="156" width="150" height="26" as="geometry" />
        </mxCell>
        <mxCell id="cYzZMKrLPD-0MxN3_8T5-10" value="- direction: double" style="text;strokeColor=none;fillColor=none;align=left;verticalAlign=top;spacingLeft=4;spacingRight=4;overflow=hidden;rotatable=0;points=[[0,0.5],[1,0.5]];portConstraint=eastwest;whiteSpace=wrap;html=1;" vertex="1" parent="cYzZMKrLPD-0MxN3_8T5-1">
          <mxGeometry y="182" width="150" height="26" as="geometry" />
        </mxCell>
        <mxCell id="cYzZMKrLPD-0MxN3_8T5-11" value="- imagePath: String" style="text;strokeColor=none;fillColor=none;align=left;verticalAlign=top;spacingLeft=4;spacingRight=4;overflow=hidden;rotatable=0;points=[[0,0.5],[1,0.5]];portConstraint=eastwest;whiteSpace=wrap;html=1;" vertex="1" parent="cYzZMKrLPD-0MxN3_8T5-1">
          <mxGeometry y="208" width="150" height="26" as="geometry" />
        </mxCell>
        <mxCell id="cYzZMKrLPD-0MxN3_8T5-3" value="" style="line;strokeWidth=1;fillColor=none;align=left;verticalAlign=middle;spacingTop=-1;spacingLeft=3;spacingRight=3;rotatable=0;labelPosition=right;points=[];portConstraint=eastwest;strokeColor=inherit;" vertex="1" parent="cYzZMKrLPD-0MxN3_8T5-1">
          <mxGeometry y="234" width="150" height="8" as="geometry" />
        </mxCell>
        <mxCell id="cYzZMKrLPD-0MxN3_8T5-4" value="+ move(): void" style="text;strokeColor=none;fillColor=none;align=left;verticalAlign=top;spacingLeft=4;spacingRight=4;overflow=hidden;rotatable=0;points=[[0,0.5],[1,0.5]];portConstraint=eastwest;whiteSpace=wrap;html=1;" vertex="1" parent="cYzZMKrLPD-0MxN3_8T5-1">
          <mxGeometry y="242" width="150" height="26" as="geometry" />
        </mxCell>
        <mxCell id="cYzZMKrLPD-0MxN3_8T5-12" value="+ gas(double): void" style="text;strokeColor=none;fillColor=none;align=left;verticalAlign=top;spacingLeft=4;spacingRight=4;overflow=hidden;rotatable=0;points=[[0,0.5],[1,0.5]];portConstraint=eastwest;whiteSpace=wrap;html=1;" vertex="1" parent="cYzZMKrLPD-0MxN3_8T5-1">
          <mxGeometry y="268" width="150" height="26" as="geometry" />
        </mxCell>
        <mxCell id="cYzZMKrLPD-0MxN3_8T5-13" value="+ brake(double): void" style="text;strokeColor=none;fillColor=none;align=left;verticalAlign=top;spacingLeft=4;spacingRight=4;overflow=hidden;rotatable=0;points=[[0,0.5],[1,0.5]];portConstraint=eastwest;whiteSpace=wrap;html=1;" vertex="1" parent="cYzZMKrLPD-0MxN3_8T5-1">
          <mxGeometry y="294" width="150" height="26" as="geometry" />
        </mxCell>
        <mxCell id="cYzZMKrLPD-0MxN3_8T5-14" value="+ startEngine(): void" style="text;strokeColor=none;fillColor=none;align=left;verticalAlign=top;spacingLeft=4;spacingRight=4;overflow=hidden;rotatable=0;points=[[0,0.5],[1,0.5]];portConstraint=eastwest;whiteSpace=wrap;html=1;" vertex="1" parent="cYzZMKrLPD-0MxN3_8T5-1">
          <mxGeometry y="320" width="150" height="26" as="geometry" />
        </mxCell>
        <mxCell id="cYzZMKrLPD-0MxN3_8T5-15" value="+ stopEngine(): void" style="text;strokeColor=none;fillColor=none;align=left;verticalAlign=top;spacingLeft=4;spacingRight=4;overflow=hidden;rotatable=0;points=[[0,0.5],[1,0.5]];portConstraint=eastwest;whiteSpace=wrap;html=1;" vertex="1" parent="cYzZMKrLPD-0MxN3_8T5-1">
          <mxGeometry y="346" width="150" height="26" as="geometry" />
        </mxCell>
        <mxCell id="cYzZMKrLPD-0MxN3_8T5-16" value="+ turnLeft(): void" style="text;strokeColor=none;fillColor=none;align=left;verticalAlign=top;spacingLeft=4;spacingRight=4;overflow=hidden;rotatable=0;points=[[0,0.5],[1,0.5]];portConstraint=eastwest;whiteSpace=wrap;html=1;" vertex="1" parent="cYzZMKrLPD-0MxN3_8T5-1">
          <mxGeometry y="372" width="150" height="26" as="geometry" />
        </mxCell>
        <mxCell id="cYzZMKrLPD-0MxN3_8T5-17" value="+ turnRight(): void" style="text;strokeColor=none;fillColor=none;align=left;verticalAlign=top;spacingLeft=4;spacingRight=4;overflow=hidden;rotatable=0;points=[[0,0.5],[1,0.5]];portConstraint=eastwest;whiteSpace=wrap;html=1;" vertex="1" parent="cYzZMKrLPD-0MxN3_8T5-1">
          <mxGeometry y="398" width="150" height="26" as="geometry" />
        </mxCell>
        <mxCell id="cYzZMKrLPD-0MxN3_8T5-18" value="+ reverseDirection(): void" style="text;strokeColor=none;fillColor=none;align=left;verticalAlign=top;spacingLeft=4;spacingRight=4;overflow=hidden;rotatable=0;points=[[0,0.5],[1,0.5]];portConstraint=eastwest;whiteSpace=wrap;html=1;" vertex="1" parent="cYzZMKrLPD-0MxN3_8T5-1">
          <mxGeometry y="424" width="150" height="26" as="geometry" />
        </mxCell>
        <mxCell id="cYzZMKrLPD-0MxN3_8T5-29" value="&lt;i&gt;+ speedFactor(): void&lt;/i&gt;" style="text;strokeColor=none;fillColor=none;align=left;verticalAlign=top;spacingLeft=4;spacingRight=4;overflow=hidden;rotatable=0;points=[[0,0.5],[1,0.5]];portConstraint=eastwest;whiteSpace=wrap;html=1;" vertex="1" parent="cYzZMKrLPD-0MxN3_8T5-1">
          <mxGeometry y="450" width="150" height="26" as="geometry" />
        </mxCell>
        <mxCell id="cYzZMKrLPD-0MxN3_8T5-20" value="&lt;p style=&quot;margin:0px;margin-top:4px;text-align:center;&quot;&gt;&lt;i&gt;&amp;lt;&amp;lt;Interface&amp;gt;&amp;gt;&lt;/i&gt;&lt;br&gt;&lt;b&gt;Movable&lt;/b&gt;&lt;/p&gt;&lt;hr size=&quot;1&quot;&gt;&lt;p style=&quot;margin:0px;margin-left:4px;&quot;&gt;&lt;span style=&quot;background-color: initial;&quot;&gt;+ move(): void&lt;/span&gt;&lt;br&gt;&lt;/p&gt;&lt;p style=&quot;margin:0px;margin-left:4px;&quot;&gt;+ turnLeft(): void&lt;/p&gt;&lt;p style=&quot;margin:0px;margin-left:4px;&quot;&gt;+ turnRight(): void&lt;/p&gt;&lt;p style=&quot;margin:0px;margin-left:4px;&quot;&gt;+ reverseDirection: void&lt;/p&gt;" style="verticalAlign=top;align=left;overflow=fill;html=1;whiteSpace=wrap;" vertex="1" parent="1">
          <mxGeometry x="215" y="110" width="190" height="110" as="geometry" />
        </mxCell>
        <mxCell id="cYzZMKrLPD-0MxN3_8T5-25" value="&lt;b&gt;&lt;i&gt;Car&lt;/i&gt;&lt;/b&gt;" style="swimlane;fontStyle=0;childLayout=stackLayout;horizontal=1;startSize=26;fillColor=none;horizontalStack=0;resizeParent=1;resizeParentMax=0;resizeLast=0;collapsible=1;marginBottom=0;whiteSpace=wrap;html=1;" vertex="1" parent="1">
          <mxGeometry x="480" y="110" width="140" height="52" as="geometry" />
        </mxCell>
        <mxCell id="cYzZMKrLPD-0MxN3_8T5-27" value="&amp;nbsp;&amp;nbsp;" style="text;strokeColor=none;fillColor=none;align=left;verticalAlign=top;spacingLeft=4;spacingRight=4;overflow=hidden;rotatable=0;points=[[0,0.5],[1,0.5]];portConstraint=eastwest;whiteSpace=wrap;html=1;" vertex="1" parent="cYzZMKrLPD-0MxN3_8T5-25">
          <mxGeometry y="26" width="140" height="26" as="geometry" />
        </mxCell>
        <mxCell id="cYzZMKrLPD-0MxN3_8T5-30" value="Saab95" style="swimlane;fontStyle=1;align=center;verticalAlign=top;childLayout=stackLayout;horizontal=1;startSize=26;horizontalStack=0;resizeParent=1;resizeParentMax=0;resizeLast=0;collapsible=1;marginBottom=0;whiteSpace=wrap;html=1;" vertex="1" parent="1">
          <mxGeometry x="730" y="419" width="160" height="138" as="geometry" />
        </mxCell>
        <mxCell id="cYzZMKrLPD-0MxN3_8T5-31" value="+ turboOn: boolean" style="text;strokeColor=none;fillColor=none;align=left;verticalAlign=top;spacingLeft=4;spacingRight=4;overflow=hidden;rotatable=0;points=[[0,0.5],[1,0.5]];portConstraint=eastwest;whiteSpace=wrap;html=1;" vertex="1" parent="cYzZMKrLPD-0MxN3_8T5-30">
          <mxGeometry y="26" width="160" height="26" as="geometry" />
        </mxCell>
        <mxCell id="cYzZMKrLPD-0MxN3_8T5-32" value="" style="line;strokeWidth=1;fillColor=none;align=left;verticalAlign=middle;spacingTop=-1;spacingLeft=3;spacingRight=3;rotatable=0;labelPosition=right;points=[];portConstraint=eastwest;strokeColor=inherit;" vertex="1" parent="cYzZMKrLPD-0MxN3_8T5-30">
          <mxGeometry y="52" width="160" height="8" as="geometry" />
        </mxCell>
        <mxCell id="cYzZMKrLPD-0MxN3_8T5-33" value="+ speedFactor(): double" style="text;strokeColor=none;fillColor=none;align=left;verticalAlign=top;spacingLeft=4;spacingRight=4;overflow=hidden;rotatable=0;points=[[0,0.5],[1,0.5]];portConstraint=eastwest;whiteSpace=wrap;html=1;" vertex="1" parent="cYzZMKrLPD-0MxN3_8T5-30">
          <mxGeometry y="60" width="160" height="26" as="geometry" />
        </mxCell>
        <mxCell id="cYzZMKrLPD-0MxN3_8T5-34" value="+ setTurboOn(): void" style="text;strokeColor=none;fillColor=none;align=left;verticalAlign=top;spacingLeft=4;spacingRight=4;overflow=hidden;rotatable=0;points=[[0,0.5],[1,0.5]];portConstraint=eastwest;whiteSpace=wrap;html=1;" vertex="1" parent="cYzZMKrLPD-0MxN3_8T5-30">
          <mxGeometry y="86" width="160" height="26" as="geometry" />
        </mxCell>
        <mxCell id="cYzZMKrLPD-0MxN3_8T5-35" value="+ setTurboOff(): void" style="text;strokeColor=none;fillColor=none;align=left;verticalAlign=top;spacingLeft=4;spacingRight=4;overflow=hidden;rotatable=0;points=[[0,0.5],[1,0.5]];portConstraint=eastwest;whiteSpace=wrap;html=1;" vertex="1" parent="cYzZMKrLPD-0MxN3_8T5-30">
          <mxGeometry y="112" width="160" height="26" as="geometry" />
        </mxCell>
        <mxCell id="cYzZMKrLPD-0MxN3_8T5-36" value="Volvo240" style="swimlane;fontStyle=1;align=center;verticalAlign=top;childLayout=stackLayout;horizontal=1;startSize=26;horizontalStack=0;resizeParent=1;resizeParentMax=0;resizeLast=0;collapsible=1;marginBottom=0;whiteSpace=wrap;html=1;" vertex="1" parent="1">
          <mxGeometry x="730" y="300" width="160" height="86" as="geometry" />
        </mxCell>
        <mxCell id="cYzZMKrLPD-0MxN3_8T5-37" value="&lt;u&gt;- trimFactor: double&lt;/u&gt;" style="text;strokeColor=none;fillColor=none;align=left;verticalAlign=top;spacingLeft=4;spacingRight=4;overflow=hidden;rotatable=0;points=[[0,0.5],[1,0.5]];portConstraint=eastwest;whiteSpace=wrap;html=1;" vertex="1" parent="cYzZMKrLPD-0MxN3_8T5-36">
          <mxGeometry y="26" width="160" height="26" as="geometry" />
        </mxCell>
        <mxCell id="cYzZMKrLPD-0MxN3_8T5-38" value="" style="line;strokeWidth=1;fillColor=none;align=left;verticalAlign=middle;spacingTop=-1;spacingLeft=3;spacingRight=3;rotatable=0;labelPosition=right;points=[];portConstraint=eastwest;strokeColor=inherit;" vertex="1" parent="cYzZMKrLPD-0MxN3_8T5-36">
          <mxGeometry y="52" width="160" height="8" as="geometry" />
        </mxCell>
        <mxCell id="cYzZMKrLPD-0MxN3_8T5-39" value="+ speedFactor(): double" style="text;strokeColor=none;fillColor=none;align=left;verticalAlign=top;spacingLeft=4;spacingRight=4;overflow=hidden;rotatable=0;points=[[0,0.5],[1,0.5]];portConstraint=eastwest;whiteSpace=wrap;html=1;" vertex="1" parent="cYzZMKrLPD-0MxN3_8T5-36">
          <mxGeometry y="60" width="160" height="26" as="geometry" />
        </mxCell>
        <mxCell id="cYzZMKrLPD-0MxN3_8T5-42" value="Scania" style="swimlane;fontStyle=1;align=center;verticalAlign=top;childLayout=stackLayout;horizontal=1;startSize=26;horizontalStack=0;resizeParent=1;resizeParentMax=0;resizeLast=0;collapsible=1;marginBottom=0;whiteSpace=wrap;html=1;" vertex="1" parent="1">
          <mxGeometry x="-120" y="740" width="230" height="216" as="geometry" />
        </mxCell>
        <mxCell id="cYzZMKrLPD-0MxN3_8T5-43" value="- flatbedAngle: double" style="text;strokeColor=none;fillColor=none;align=left;verticalAlign=top;spacingLeft=4;spacingRight=4;overflow=hidden;rotatable=0;points=[[0,0.5],[1,0.5]];portConstraint=eastwest;whiteSpace=wrap;html=1;" vertex="1" parent="cYzZMKrLPD-0MxN3_8T5-42">
          <mxGeometry y="26" width="230" height="26" as="geometry" />
        </mxCell>
        <mxCell id="cYzZMKrLPD-0MxN3_8T5-44" value="" style="line;strokeWidth=1;fillColor=none;align=left;verticalAlign=middle;spacingTop=-1;spacingLeft=3;spacingRight=3;rotatable=0;labelPosition=right;points=[];portConstraint=eastwest;strokeColor=inherit;" vertex="1" parent="cYzZMKrLPD-0MxN3_8T5-42">
          <mxGeometry y="52" width="230" height="8" as="geometry" />
        </mxCell>
        <mxCell id="cYzZMKrLPD-0MxN3_8T5-45" value="+ getFlatbedAngle(): double" style="text;strokeColor=none;fillColor=none;align=left;verticalAlign=top;spacingLeft=4;spacingRight=4;overflow=hidden;rotatable=0;points=[[0,0.5],[1,0.5]];portConstraint=eastwest;whiteSpace=wrap;html=1;" vertex="1" parent="cYzZMKrLPD-0MxN3_8T5-42">
          <mxGeometry y="60" width="230" height="26" as="geometry" />
        </mxCell>
        <mxCell id="cYzZMKrLPD-0MxN3_8T5-46" value="+ raisePlatform(): void" style="text;strokeColor=none;fillColor=none;align=left;verticalAlign=top;spacingLeft=4;spacingRight=4;overflow=hidden;rotatable=0;points=[[0,0.5],[1,0.5]];portConstraint=eastwest;whiteSpace=wrap;html=1;" vertex="1" parent="cYzZMKrLPD-0MxN3_8T5-42">
          <mxGeometry y="86" width="230" height="26" as="geometry" />
        </mxCell>
        <mxCell id="cYzZMKrLPD-0MxN3_8T5-47" value="+ lowerPlatform(): void" style="text;strokeColor=none;fillColor=none;align=left;verticalAlign=top;spacingLeft=4;spacingRight=4;overflow=hidden;rotatable=0;points=[[0,0.5],[1,0.5]];portConstraint=eastwest;whiteSpace=wrap;html=1;" vertex="1" parent="cYzZMKrLPD-0MxN3_8T5-42">
          <mxGeometry y="112" width="230" height="26" as="geometry" />
        </mxCell>
        <mxCell id="cYzZMKrLPD-0MxN3_8T5-48" value="+ startEngine(): void" style="text;strokeColor=none;fillColor=none;align=left;verticalAlign=top;spacingLeft=4;spacingRight=4;overflow=hidden;rotatable=0;points=[[0,0.5],[1,0.5]];portConstraint=eastwest;whiteSpace=wrap;html=1;" vertex="1" parent="cYzZMKrLPD-0MxN3_8T5-42">
          <mxGeometry y="138" width="230" height="26" as="geometry" />
        </mxCell>
        <mxCell id="cYzZMKrLPD-0MxN3_8T5-49" value="+ speedFactor(): double" style="text;strokeColor=none;fillColor=none;align=left;verticalAlign=top;spacingLeft=4;spacingRight=4;overflow=hidden;rotatable=0;points=[[0,0.5],[1,0.5]];portConstraint=eastwest;whiteSpace=wrap;html=1;" vertex="1" parent="cYzZMKrLPD-0MxN3_8T5-42">
          <mxGeometry y="164" width="230" height="26" as="geometry" />
        </mxCell>
        <mxCell id="cYzZMKrLPD-0MxN3_8T5-50" value="+ incrementSpeed(amount: double): void" style="text;strokeColor=none;fillColor=none;align=left;verticalAlign=top;spacingLeft=4;spacingRight=4;overflow=hidden;rotatable=0;points=[[0,0.5],[1,0.5]];portConstraint=eastwest;whiteSpace=wrap;html=1;" vertex="1" parent="cYzZMKrLPD-0MxN3_8T5-42">
          <mxGeometry y="190" width="230" height="26" as="geometry" />
        </mxCell>
        <mxCell id="cYzZMKrLPD-0MxN3_8T5-51" value="&lt;p style=&quot;margin:0px;margin-top:4px;text-align:center;&quot;&gt;&lt;i&gt;&amp;lt;&amp;lt;Interface&amp;gt;&amp;gt;&lt;/i&gt;&lt;br&gt;&lt;b&gt;Platform&lt;/b&gt;&lt;/p&gt;&lt;hr size=&quot;1&quot;&gt;&lt;p style=&quot;margin:0px;margin-left:4px;&quot;&gt;&lt;span style=&quot;background-color: initial;&quot;&gt;+ raisePlatform(): void&lt;/span&gt;&lt;/p&gt;&lt;p style=&quot;margin:0px;margin-left:4px;&quot;&gt;&lt;span style=&quot;background-color: initial;&quot;&gt;+ lowerPlatform(): void&lt;/span&gt;&lt;br&gt;&lt;/p&gt;" style="verticalAlign=top;align=left;overflow=fill;html=1;whiteSpace=wrap;" vertex="1" parent="1">
          <mxGeometry x="-100" y="574" width="190" height="76" as="geometry" />
        </mxCell>
        <mxCell id="cYzZMKrLPD-0MxN3_8T5-52" value="&lt;p style=&quot;margin:0px;margin-top:4px;text-align:center;&quot;&gt;&lt;i&gt;&amp;lt;&amp;lt;Interface&amp;gt;&amp;gt;&lt;/i&gt;&lt;br&gt;&lt;b&gt;Loadable&amp;lt;T&amp;gt;&lt;/b&gt;&lt;/p&gt;&lt;hr size=&quot;1&quot;&gt;&lt;p style=&quot;margin:0px;margin-left:4px;&quot;&gt;&lt;span style=&quot;background-color: initial;&quot;&gt;+ load(car: T): void&lt;/span&gt;&lt;/p&gt;&lt;p style=&quot;margin:0px;margin-left:4px;&quot;&gt;&lt;span style=&quot;background-color: initial;&quot;&gt;+ unload(): T&lt;/span&gt;&lt;br&gt;&lt;/p&gt;" style="verticalAlign=top;align=left;overflow=fill;html=1;whiteSpace=wrap;" vertex="1" parent="1">
          <mxGeometry x="1060" y="669" width="190" height="80" as="geometry" />
        </mxCell>
        <mxCell id="cYzZMKrLPD-0MxN3_8T5-53" value="Garage&amp;lt;T&amp;gt;" style="swimlane;fontStyle=1;align=center;verticalAlign=top;childLayout=stackLayout;horizontal=1;startSize=26;horizontalStack=0;resizeParent=1;resizeParentMax=0;resizeLast=0;collapsible=1;marginBottom=0;whiteSpace=wrap;html=1;" vertex="1" parent="1">
          <mxGeometry x="692" y="610" width="236" height="190" as="geometry" />
        </mxCell>
        <mxCell id="cYzZMKrLPD-0MxN3_8T5-54" value="- loadedCars: QueueLoader&amp;lt;T&amp;gt;" style="text;strokeColor=none;fillColor=none;align=left;verticalAlign=top;spacingLeft=4;spacingRight=4;overflow=hidden;rotatable=0;points=[[0,0.5],[1,0.5]];portConstraint=eastwest;whiteSpace=wrap;html=1;" vertex="1" parent="cYzZMKrLPD-0MxN3_8T5-53">
          <mxGeometry y="26" width="236" height="26" as="geometry" />
        </mxCell>
        <mxCell id="cYzZMKrLPD-0MxN3_8T5-55" value="- garageLocation: Point" style="text;strokeColor=none;fillColor=none;align=left;verticalAlign=top;spacingLeft=4;spacingRight=4;overflow=hidden;rotatable=0;points=[[0,0.5],[1,0.5]];portConstraint=eastwest;whiteSpace=wrap;html=1;" vertex="1" parent="cYzZMKrLPD-0MxN3_8T5-53">
          <mxGeometry y="52" width="236" height="26" as="geometry" />
        </mxCell>
        <mxCell id="cYzZMKrLPD-0MxN3_8T5-59" value="" style="line;strokeWidth=1;fillColor=none;align=left;verticalAlign=middle;spacingTop=-1;spacingLeft=3;spacingRight=3;rotatable=0;labelPosition=right;points=[];portConstraint=eastwest;strokeColor=inherit;" vertex="1" parent="cYzZMKrLPD-0MxN3_8T5-53">
          <mxGeometry y="78" width="236" height="8" as="geometry" />
        </mxCell>
        <mxCell id="cYzZMKrLPD-0MxN3_8T5-60" value="+ getLoadedCars(): QueueLoader&amp;lt;T&amp;gt;" style="text;strokeColor=none;fillColor=none;align=left;verticalAlign=top;spacingLeft=4;spacingRight=4;overflow=hidden;rotatable=0;points=[[0,0.5],[1,0.5]];portConstraint=eastwest;whiteSpace=wrap;html=1;" vertex="1" parent="cYzZMKrLPD-0MxN3_8T5-53">
          <mxGeometry y="86" width="236" height="26" as="geometry" />
        </mxCell>
        <mxCell id="cYzZMKrLPD-0MxN3_8T5-61" value="+ getLocation(): Point" style="text;strokeColor=none;fillColor=none;align=left;verticalAlign=top;spacingLeft=4;spacingRight=4;overflow=hidden;rotatable=0;points=[[0,0.5],[1,0.5]];portConstraint=eastwest;whiteSpace=wrap;html=1;" vertex="1" parent="cYzZMKrLPD-0MxN3_8T5-53">
          <mxGeometry y="112" width="236" height="26" as="geometry" />
        </mxCell>
        <mxCell id="cYzZMKrLPD-0MxN3_8T5-62" value="+ load(car: T): void" style="text;strokeColor=none;fillColor=none;align=left;verticalAlign=top;spacingLeft=4;spacingRight=4;overflow=hidden;rotatable=0;points=[[0,0.5],[1,0.5]];portConstraint=eastwest;whiteSpace=wrap;html=1;" vertex="1" parent="cYzZMKrLPD-0MxN3_8T5-53">
          <mxGeometry y="138" width="236" height="26" as="geometry" />
        </mxCell>
        <mxCell id="cYzZMKrLPD-0MxN3_8T5-63" value="+ unload(): T" style="text;strokeColor=none;fillColor=none;align=left;verticalAlign=top;spacingLeft=4;spacingRight=4;overflow=hidden;rotatable=0;points=[[0,0.5],[1,0.5]];portConstraint=eastwest;whiteSpace=wrap;html=1;" vertex="1" parent="cYzZMKrLPD-0MxN3_8T5-53">
          <mxGeometry y="164" width="236" height="26" as="geometry" />
        </mxCell>
        <mxCell id="cYzZMKrLPD-0MxN3_8T5-68" value="&lt;i&gt;Loader&amp;lt;T&amp;gt;&lt;/i&gt;" style="swimlane;fontStyle=1;align=center;verticalAlign=top;childLayout=stackLayout;horizontal=1;startSize=26;horizontalStack=0;resizeParent=1;resizeParentMax=0;resizeLast=0;collapsible=1;marginBottom=0;whiteSpace=wrap;html=1;" vertex="1" parent="1">
          <mxGeometry x="1040" y="320" width="350" height="270" as="geometry" />
        </mxCell>
        <mxCell id="cYzZMKrLPD-0MxN3_8T5-69" value="# loadedCars: ArrayList&amp;lt;T&amp;gt;" style="text;strokeColor=none;fillColor=none;align=left;verticalAlign=top;spacingLeft=4;spacingRight=4;overflow=hidden;rotatable=0;points=[[0,0.5],[1,0.5]];portConstraint=eastwest;whiteSpace=wrap;html=1;" vertex="1" parent="cYzZMKrLPD-0MxN3_8T5-68">
          <mxGeometry y="26" width="350" height="26" as="geometry" />
        </mxCell>
        <mxCell id="cYzZMKrLPD-0MxN3_8T5-70" value="- maxLoadables: int" style="text;strokeColor=none;fillColor=none;align=left;verticalAlign=top;spacingLeft=4;spacingRight=4;overflow=hidden;rotatable=0;points=[[0,0.5],[1,0.5]];portConstraint=eastwest;whiteSpace=wrap;html=1;" vertex="1" parent="cYzZMKrLPD-0MxN3_8T5-68">
          <mxGeometry y="52" width="350" height="26" as="geometry" />
        </mxCell>
        <mxCell id="cYzZMKrLPD-0MxN3_8T5-71" value="&lt;u&gt;- maxCarDistance: int&lt;/u&gt;" style="text;strokeColor=none;fillColor=none;align=left;verticalAlign=top;spacingLeft=4;spacingRight=4;overflow=hidden;rotatable=0;points=[[0,0.5],[1,0.5]];portConstraint=eastwest;whiteSpace=wrap;html=1;" vertex="1" parent="cYzZMKrLPD-0MxN3_8T5-68">
          <mxGeometry y="78" width="350" height="26" as="geometry" />
        </mxCell>
        <mxCell id="cYzZMKrLPD-0MxN3_8T5-77" value="" style="line;strokeWidth=1;fillColor=none;align=left;verticalAlign=middle;spacingTop=-1;spacingLeft=3;spacingRight=3;rotatable=0;labelPosition=right;points=[];portConstraint=eastwest;strokeColor=inherit;" vertex="1" parent="cYzZMKrLPD-0MxN3_8T5-68">
          <mxGeometry y="104" width="350" height="8" as="geometry" />
        </mxCell>
        <mxCell id="cYzZMKrLPD-0MxN3_8T5-78" value="+ getLoadedCars():&amp;nbsp;ArrayList&amp;lt;T&amp;gt;" style="text;strokeColor=none;fillColor=none;align=left;verticalAlign=top;spacingLeft=4;spacingRight=4;overflow=hidden;rotatable=0;points=[[0,0.5],[1,0.5]];portConstraint=eastwest;whiteSpace=wrap;html=1;" vertex="1" parent="cYzZMKrLPD-0MxN3_8T5-68">
          <mxGeometry y="112" width="350" height="26" as="geometry" />
        </mxCell>
        <mxCell id="cYzZMKrLPD-0MxN3_8T5-79" value="+ getCurrentLoadSize(): int" style="text;strokeColor=none;fillColor=none;align=left;verticalAlign=top;spacingLeft=4;spacingRight=4;overflow=hidden;rotatable=0;points=[[0,0.5],[1,0.5]];portConstraint=eastwest;whiteSpace=wrap;html=1;" vertex="1" parent="cYzZMKrLPD-0MxN3_8T5-68">
          <mxGeometry y="138" width="350" height="26" as="geometry" />
        </mxCell>
        <mxCell id="cYzZMKrLPD-0MxN3_8T5-80" value="+ load(car: T): void" style="text;strokeColor=none;fillColor=none;align=left;verticalAlign=top;spacingLeft=4;spacingRight=4;overflow=hidden;rotatable=0;points=[[0,0.5],[1,0.5]];portConstraint=eastwest;whiteSpace=wrap;html=1;" vertex="1" parent="cYzZMKrLPD-0MxN3_8T5-68">
          <mxGeometry y="164" width="350" height="26" as="geometry" />
        </mxCell>
        <mxCell id="cYzZMKrLPD-0MxN3_8T5-81" value="+ unload(): T" style="text;strokeColor=none;fillColor=none;align=left;verticalAlign=top;spacingLeft=4;spacingRight=4;overflow=hidden;rotatable=0;points=[[0,0.5],[1,0.5]];portConstraint=eastwest;whiteSpace=wrap;html=1;" vertex="1" parent="cYzZMKrLPD-0MxN3_8T5-68">
          <mxGeometry y="190" width="350" height="26" as="geometry" />
        </mxCell>
        <mxCell id="cYzZMKrLPD-0MxN3_8T5-82" value="+ validateCarPosition(car: Car, loaderposition: Point): void" style="text;strokeColor=none;fillColor=none;align=left;verticalAlign=top;spacingLeft=4;spacingRight=4;overflow=hidden;rotatable=0;points=[[0,0.5],[1,0.5]];portConstraint=eastwest;whiteSpace=wrap;html=1;" vertex="1" parent="cYzZMKrLPD-0MxN3_8T5-68">
          <mxGeometry y="216" width="350" height="24" as="geometry" />
        </mxCell>
        <mxCell id="cYzZMKrLPD-0MxN3_8T5-83" value="+ isCarWithinRange(car: Car, loaderposition: Point): boolean" style="text;strokeColor=none;fillColor=none;align=left;verticalAlign=top;spacingLeft=4;spacingRight=4;overflow=hidden;rotatable=0;points=[[0,0.5],[1,0.5]];portConstraint=eastwest;whiteSpace=wrap;html=1;" vertex="1" parent="cYzZMKrLPD-0MxN3_8T5-68">
          <mxGeometry y="240" width="350" height="30" as="geometry" />
        </mxCell>
        <mxCell id="cYzZMKrLPD-0MxN3_8T5-88" style="edgeStyle=orthogonalEdgeStyle;rounded=0;orthogonalLoop=1;jettySize=auto;html=1;exitX=0.5;exitY=1;exitDx=0;exitDy=0;" edge="1" parent="1" source="cYzZMKrLPD-0MxN3_8T5-52" target="cYzZMKrLPD-0MxN3_8T5-52">
          <mxGeometry relative="1" as="geometry" />
        </mxCell>
        <mxCell id="cYzZMKrLPD-0MxN3_8T5-89" value="QueueLoader&amp;lt;T&amp;gt;" style="swimlane;fontStyle=1;align=center;verticalAlign=top;childLayout=stackLayout;horizontal=1;startSize=26;horizontalStack=0;resizeParent=1;resizeParentMax=0;resizeLast=0;collapsible=1;marginBottom=0;whiteSpace=wrap;html=1;" vertex="1" parent="1">
          <mxGeometry x="1040" y="120" width="160" height="52" as="geometry" />
        </mxCell>
        <mxCell id="cYzZMKrLPD-0MxN3_8T5-92" value="# unloadImpl(): T" style="text;strokeColor=none;fillColor=none;align=left;verticalAlign=top;spacingLeft=4;spacingRight=4;overflow=hidden;rotatable=0;points=[[0,0.5],[1,0.5]];portConstraint=eastwest;whiteSpace=wrap;html=1;" vertex="1" parent="cYzZMKrLPD-0MxN3_8T5-89">
          <mxGeometry y="26" width="160" height="26" as="geometry" />
        </mxCell>
        <mxCell id="cYzZMKrLPD-0MxN3_8T5-93" value="StackLoader&amp;lt;T&amp;gt;" style="swimlane;fontStyle=1;align=center;verticalAlign=top;childLayout=stackLayout;horizontal=1;startSize=26;horizontalStack=0;resizeParent=1;resizeParentMax=0;resizeLast=0;collapsible=1;marginBottom=0;whiteSpace=wrap;html=1;" vertex="1" parent="1">
          <mxGeometry x="1230" y="120" width="160" height="78" as="geometry" />
        </mxCell>
        <mxCell id="cYzZMKrLPD-0MxN3_8T5-96" value="# unloadImpl(): T" style="text;strokeColor=none;fillColor=none;align=left;verticalAlign=top;spacingLeft=4;spacingRight=4;overflow=hidden;rotatable=0;points=[[0,0.5],[1,0.5]];portConstraint=eastwest;whiteSpace=wrap;html=1;" vertex="1" parent="cYzZMKrLPD-0MxN3_8T5-93">
          <mxGeometry y="26" width="160" height="26" as="geometry" />
        </mxCell>
        <mxCell id="cYzZMKrLPD-0MxN3_8T5-94" value="+ iterator(): Iterator&amp;lt;T&amp;gt;" style="text;strokeColor=none;fillColor=none;align=left;verticalAlign=top;spacingLeft=4;spacingRight=4;overflow=hidden;rotatable=0;points=[[0,0.5],[1,0.5]];portConstraint=eastwest;whiteSpace=wrap;html=1;" vertex="1" parent="cYzZMKrLPD-0MxN3_8T5-93">
          <mxGeometry y="52" width="160" height="26" as="geometry" />
        </mxCell>
        <mxCell id="cYzZMKrLPD-0MxN3_8T5-100" value="Generalization" style="endArrow=block;endSize=16;endFill=0;html=1;rounded=0;exitX=0.69;exitY=0.017;exitDx=0;exitDy=0;exitPerimeter=0;entryX=0.901;entryY=1.143;entryDx=0;entryDy=0;entryPerimeter=0;" edge="1" parent="1" source="cYzZMKrLPD-0MxN3_8T5-36" target="cYzZMKrLPD-0MxN3_8T5-27">
          <mxGeometry width="160" relative="1" as="geometry">
            <mxPoint x="90" y="887" as="sourcePoint" />
            <mxPoint x="620" y="200" as="targetPoint" />
            <Array as="points">
              <mxPoint x="840" y="230" />
              <mxPoint x="606" y="230" />
            </Array>
          </mxGeometry>
        </mxCell>
        <mxCell id="cYzZMKrLPD-0MxN3_8T5-102" value="Generalization" style="endArrow=block;endSize=16;endFill=0;html=1;rounded=0;exitX=1.021;exitY=0.148;exitDx=0;exitDy=0;entryX=1;entryY=0.5;entryDx=0;entryDy=0;exitPerimeter=0;" edge="1" parent="1" source="cYzZMKrLPD-0MxN3_8T5-33" target="cYzZMKrLPD-0MxN3_8T5-27">
          <mxGeometry x="-0.0096" width="160" relative="1" as="geometry">
            <mxPoint x="460" y="885" as="sourcePoint" />
            <mxPoint x="640" y="492" as="targetPoint" />
            <Array as="points">
              <mxPoint x="930" y="483" />
              <mxPoint x="930" y="149" />
            </Array>
            <mxPoint as="offset" />
          </mxGeometry>
        </mxCell>
        <mxCell id="cYzZMKrLPD-0MxN3_8T5-103" value="Generalization" style="endArrow=block;endSize=16;endFill=0;html=1;rounded=0;exitX=0;exitY=0.25;exitDx=0;exitDy=0;entryX=1.024;entryY=-0.038;entryDx=0;entryDy=0;entryPerimeter=0;" edge="1" parent="1" source="cYzZMKrLPD-0MxN3_8T5-25" target="cYzZMKrLPD-0MxN3_8T5-2">
          <mxGeometry width="160" relative="1" as="geometry">
            <mxPoint x="270" y="700" as="sourcePoint" />
            <mxPoint x="510" y="760" as="targetPoint" />
            <Array as="points">
              <mxPoint x="440" y="123" />
              <mxPoint x="440" y="325" />
            </Array>
          </mxGeometry>
        </mxCell>
        <mxCell id="cYzZMKrLPD-0MxN3_8T5-104" value="" style="endArrow=block;dashed=1;endFill=0;endSize=12;html=1;rounded=0;exitX=0.5;exitY=0;exitDx=0;exitDy=0;" edge="1" parent="1" source="cYzZMKrLPD-0MxN3_8T5-1">
          <mxGeometry width="160" relative="1" as="geometry">
            <mxPoint x="230" y="200" as="sourcePoint" />
            <mxPoint x="310" y="220" as="targetPoint" />
          </mxGeometry>
        </mxCell>
        <mxCell id="cYzZMKrLPD-0MxN3_8T5-106" value="Generalization" style="endArrow=block;endSize=16;endFill=0;html=1;rounded=0;exitX=1;exitY=0.5;exitDx=0;exitDy=0;entryX=0;entryY=0.5;entryDx=0;entryDy=0;" edge="1" parent="1" source="cYzZMKrLPD-0MxN3_8T5-47" target="cYzZMKrLPD-0MxN3_8T5-4">
          <mxGeometry width="160" relative="1" as="geometry">
            <mxPoint x="90" y="630" as="sourcePoint" />
            <mxPoint x="180" y="530" as="targetPoint" />
            <Array as="points">
              <mxPoint x="170" y="865" />
              <mxPoint x="170" y="555" />
            </Array>
          </mxGeometry>
        </mxCell>
        <mxCell id="cYzZMKrLPD-0MxN3_8T5-114" value="Realization" style="endArrow=block;dashed=1;endFill=0;endSize=12;html=1;rounded=0;entryX=1;entryY=0.5;entryDx=0;entryDy=0;exitX=0.886;exitY=1;exitDx=0;exitDy=0;exitPerimeter=0;" edge="1" parent="1" source="cYzZMKrLPD-0MxN3_8T5-83" target="cYzZMKrLPD-0MxN3_8T5-52">
          <mxGeometry width="160" relative="1" as="geometry">
            <mxPoint x="1350" y="600" as="sourcePoint" />
            <mxPoint x="730" y="600" as="targetPoint" />
            <Array as="points">
              <mxPoint x="1350" y="710" />
            </Array>
          </mxGeometry>
        </mxCell>
        <mxCell id="cYzZMKrLPD-0MxN3_8T5-117" value="Generalization" style="endArrow=block;endSize=16;endFill=0;html=1;rounded=0;entryX=0.25;entryY=0;entryDx=0;entryDy=0;" edge="1" parent="1" target="cYzZMKrLPD-0MxN3_8T5-68">
          <mxGeometry width="160" relative="1" as="geometry">
            <mxPoint x="1128" y="170" as="sourcePoint" />
            <mxPoint x="1660" y="830" as="targetPoint" />
          </mxGeometry>
        </mxCell>
        <mxCell id="cYzZMKrLPD-0MxN3_8T5-118" value="Generalization" style="endArrow=block;endSize=16;endFill=0;html=1;rounded=0;exitX=0.446;exitY=1.064;exitDx=0;exitDy=0;entryX=0.75;entryY=0;entryDx=0;entryDy=0;exitPerimeter=0;" edge="1" parent="1" source="cYzZMKrLPD-0MxN3_8T5-94" target="cYzZMKrLPD-0MxN3_8T5-68">
          <mxGeometry width="160" relative="1" as="geometry">
            <mxPoint x="960" y="60" as="sourcePoint" />
            <mxPoint x="1030" y="230" as="targetPoint" />
          </mxGeometry>
        </mxCell>
        <mxCell id="cYzZMKrLPD-0MxN3_8T5-119" value="&lt;p style=&quot;margin:0px;margin-top:4px;text-align:center;&quot;&gt;&lt;i&gt;&amp;lt;&amp;lt;Interface&amp;gt;&amp;gt;&lt;/i&gt;&lt;br&gt;&lt;b&gt;Iterable&amp;lt;T&amp;gt;&lt;/b&gt;&lt;/p&gt;" style="verticalAlign=top;align=left;overflow=fill;html=1;whiteSpace=wrap;" vertex="1" parent="1">
          <mxGeometry x="1530" y="139" width="190" height="40" as="geometry" />
        </mxCell>
        <mxCell id="OE6Sxg3GEj1yfLS4yZ16-2" value="" style="endArrow=block;dashed=1;endFill=0;endSize=12;html=1;rounded=0;exitX=1;exitY=0.5;exitDx=0;exitDy=0;" edge="1" parent="1" source="cYzZMKrLPD-0MxN3_8T5-60">
          <mxGeometry width="160" relative="1" as="geometry">
            <mxPoint x="640" y="730" as="sourcePoint" />
            <mxPoint x="1060" y="709" as="targetPoint" />
          </mxGeometry>
        </mxCell>
        <mxCell id="6Fvowpb6cNLCwyPM5dSb-32" value="Realization" style="edgeLabel;html=1;align=center;verticalAlign=middle;resizable=0;points=[];" connectable="0" vertex="1" parent="OE6Sxg3GEj1yfLS4yZ16-2">
          <mxGeometry x="-0.2143" y="4" relative="1" as="geometry">
            <mxPoint as="offset" />
          </mxGeometry>
        </mxCell>
        <mxCell id="OE6Sxg3GEj1yfLS4yZ16-3" value="DrawPanel" style="swimlane;fontStyle=1;align=center;verticalAlign=top;childLayout=stackLayout;horizontal=1;startSize=26;horizontalStack=0;resizeParent=1;resizeParentMax=0;resizeLast=0;collapsible=1;marginBottom=0;whiteSpace=wrap;html=1;" vertex="1" parent="1">
          <mxGeometry x="1040" y="820" width="230" height="320" as="geometry" />
        </mxCell>
        <mxCell id="OE6Sxg3GEj1yfLS4yZ16-4" value="~ volvoWorkshopImage: BufferedImage" style="text;strokeColor=none;fillColor=none;align=left;verticalAlign=top;spacingLeft=4;spacingRight=4;overflow=hidden;rotatable=0;points=[[0,0.5],[1,0.5]];portConstraint=eastwest;whiteSpace=wrap;html=1;" vertex="1" parent="OE6Sxg3GEj1yfLS4yZ16-3">
          <mxGeometry y="26" width="230" height="26" as="geometry" />
        </mxCell>
        <mxCell id="OE6Sxg3GEj1yfLS4yZ16-5" value="~&amp;nbsp;volvo240Image: BufferedImage" style="text;strokeColor=none;fillColor=none;align=left;verticalAlign=top;spacingLeft=4;spacingRight=4;overflow=hidden;rotatable=0;points=[[0,0.5],[1,0.5]];portConstraint=eastwest;whiteSpace=wrap;html=1;" vertex="1" parent="OE6Sxg3GEj1yfLS4yZ16-3">
          <mxGeometry y="52" width="230" height="26" as="geometry" />
        </mxCell>
        <mxCell id="OE6Sxg3GEj1yfLS4yZ16-6" value="~ saab95Image: BufferedImage" style="text;strokeColor=none;fillColor=none;align=left;verticalAlign=top;spacingLeft=4;spacingRight=4;overflow=hidden;rotatable=0;points=[[0,0.5],[1,0.5]];portConstraint=eastwest;whiteSpace=wrap;html=1;" vertex="1" parent="OE6Sxg3GEj1yfLS4yZ16-3">
          <mxGeometry y="78" width="230" height="26" as="geometry" />
        </mxCell>
        <mxCell id="OE6Sxg3GEj1yfLS4yZ16-7" value="~&amp;nbsp;scaniaImage: BufferedImage" style="text;strokeColor=none;fillColor=none;align=left;verticalAlign=top;spacingLeft=4;spacingRight=4;overflow=hidden;rotatable=0;points=[[0,0.5],[1,0.5]];portConstraint=eastwest;whiteSpace=wrap;html=1;" vertex="1" parent="OE6Sxg3GEj1yfLS4yZ16-3">
          <mxGeometry y="104" width="230" height="26" as="geometry" />
        </mxCell>
        <mxCell id="OE6Sxg3GEj1yfLS4yZ16-8" value="~ Volvo240: Point" style="text;strokeColor=none;fillColor=none;align=left;verticalAlign=top;spacingLeft=4;spacingRight=4;overflow=hidden;rotatable=0;points=[[0,0.5],[1,0.5]];portConstraint=eastwest;whiteSpace=wrap;html=1;" vertex="1" parent="OE6Sxg3GEj1yfLS4yZ16-3">
          <mxGeometry y="130" width="230" height="26" as="geometry" />
        </mxCell>
        <mxCell id="OE6Sxg3GEj1yfLS4yZ16-18" value="~ Saab95: Point" style="text;strokeColor=none;fillColor=none;align=left;verticalAlign=top;spacingLeft=4;spacingRight=4;overflow=hidden;rotatable=0;points=[[0,0.5],[1,0.5]];portConstraint=eastwest;whiteSpace=wrap;html=1;" vertex="1" parent="OE6Sxg3GEj1yfLS4yZ16-3">
          <mxGeometry y="156" width="230" height="26" as="geometry" />
        </mxCell>
        <mxCell id="OE6Sxg3GEj1yfLS4yZ16-19" value="~ Scania: Point" style="text;strokeColor=none;fillColor=none;align=left;verticalAlign=top;spacingLeft=4;spacingRight=4;overflow=hidden;rotatable=0;points=[[0,0.5],[1,0.5]];portConstraint=eastwest;whiteSpace=wrap;html=1;" vertex="1" parent="OE6Sxg3GEj1yfLS4yZ16-3">
          <mxGeometry y="182" width="230" height="26" as="geometry" />
        </mxCell>
        <mxCell id="OE6Sxg3GEj1yfLS4yZ16-20" value="~ volvoWorkshopPoint: Point" style="text;strokeColor=none;fillColor=none;align=left;verticalAlign=top;spacingLeft=4;spacingRight=4;overflow=hidden;rotatable=0;points=[[0,0.5],[1,0.5]];portConstraint=eastwest;whiteSpace=wrap;html=1;" vertex="1" parent="OE6Sxg3GEj1yfLS4yZ16-3">
          <mxGeometry y="208" width="230" height="26" as="geometry" />
        </mxCell>
        <mxCell id="OE6Sxg3GEj1yfLS4yZ16-9" value="" style="line;strokeWidth=1;fillColor=none;align=left;verticalAlign=middle;spacingTop=-1;spacingLeft=3;spacingRight=3;rotatable=0;labelPosition=right;points=[];portConstraint=eastwest;strokeColor=inherit;" vertex="1" parent="OE6Sxg3GEj1yfLS4yZ16-3">
          <mxGeometry y="234" width="230" height="8" as="geometry" />
        </mxCell>
        <mxCell id="OE6Sxg3GEj1yfLS4yZ16-10" value="+ moveit(x: int, y: int, car: Vehicle): void" style="text;strokeColor=none;fillColor=none;align=left;verticalAlign=top;spacingLeft=4;spacingRight=4;overflow=hidden;rotatable=0;points=[[0,0.5],[1,0.5]];portConstraint=eastwest;whiteSpace=wrap;html=1;" vertex="1" parent="OE6Sxg3GEj1yfLS4yZ16-3">
          <mxGeometry y="242" width="230" height="26" as="geometry" />
        </mxCell>
        <mxCell id="OE6Sxg3GEj1yfLS4yZ16-11" value="+ DrawPanel(x: int, y: int): void" style="text;strokeColor=none;fillColor=none;align=left;verticalAlign=top;spacingLeft=4;spacingRight=4;overflow=hidden;rotatable=0;points=[[0,0.5],[1,0.5]];portConstraint=eastwest;whiteSpace=wrap;html=1;" vertex="1" parent="OE6Sxg3GEj1yfLS4yZ16-3">
          <mxGeometry y="268" width="230" height="26" as="geometry" />
        </mxCell>
        <mxCell id="OE6Sxg3GEj1yfLS4yZ16-12" value="# paintComponent(g: Graphics): void" style="text;strokeColor=none;fillColor=none;align=left;verticalAlign=top;spacingLeft=4;spacingRight=4;overflow=hidden;rotatable=0;points=[[0,0.5],[1,0.5]];portConstraint=eastwest;whiteSpace=wrap;html=1;" vertex="1" parent="OE6Sxg3GEj1yfLS4yZ16-3">
          <mxGeometry y="294" width="230" height="26" as="geometry" />
        </mxCell>
        <mxCell id="OE6Sxg3GEj1yfLS4yZ16-25" value="&lt;b&gt;JPanel&lt;/b&gt;" style="html=1;whiteSpace=wrap;" vertex="1" parent="1">
          <mxGeometry x="730" y="990" width="110" height="30" as="geometry" />
        </mxCell>
        <mxCell id="OE6Sxg3GEj1yfLS4yZ16-26" value="&lt;b&gt;JFrame&lt;/b&gt;" style="html=1;whiteSpace=wrap;" vertex="1" parent="1">
          <mxGeometry x="600" y="990" width="110" height="30" as="geometry" />
        </mxCell>
        <mxCell id="OE6Sxg3GEj1yfLS4yZ16-27" value="&lt;b&gt;JSpinner&lt;/b&gt;" style="html=1;whiteSpace=wrap;" vertex="1" parent="1">
          <mxGeometry x="1000" y="1196" width="110" height="30" as="geometry" />
        </mxCell>
        <mxCell id="OE6Sxg3GEj1yfLS4yZ16-28" value="&lt;b&gt;JLabel&lt;/b&gt;" style="html=1;whiteSpace=wrap;" vertex="1" parent="1">
          <mxGeometry x="1000" y="1256" width="110" height="30" as="geometry" />
        </mxCell>
        <mxCell id="OE6Sxg3GEj1yfLS4yZ16-29" value="&lt;b&gt;JButton&lt;/b&gt;" style="html=1;whiteSpace=wrap;" vertex="1" parent="1">
          <mxGeometry x="1000" y="1306" width="110" height="30" as="geometry" />
        </mxCell>
        <mxCell id="SzvQUFgtP2D9Fh6m5ksj-1" style="edgeStyle=orthogonalEdgeStyle;rounded=0;orthogonalLoop=1;jettySize=auto;html=1;entryX=0.5;entryY=0;entryDx=0;entryDy=0;dashed=1;endArrow=open;endFill=0;strokeWidth=1;" edge="1" parent="1" source="OE6Sxg3GEj1yfLS4yZ16-35" target="cYzZMKrLPD-0MxN3_8T5-93">
          <mxGeometry relative="1" as="geometry">
            <Array as="points">
              <mxPoint x="-5" y="40" />
              <mxPoint x="1310" y="40" />
            </Array>
          </mxGeometry>
        </mxCell>
        <mxCell id="OE6Sxg3GEj1yfLS4yZ16-35" value="&lt;i&gt;CarTransport&lt;/i&gt;" style="swimlane;fontStyle=1;align=center;verticalAlign=top;childLayout=stackLayout;horizontal=1;startSize=26;horizontalStack=0;resizeParent=1;resizeParentMax=0;resizeLast=0;collapsible=1;marginBottom=0;whiteSpace=wrap;html=1;" vertex="1" parent="1">
          <mxGeometry x="-120" y="110" width="230" height="398" as="geometry" />
        </mxCell>
        <mxCell id="OE6Sxg3GEj1yfLS4yZ16-36" value="- loadedCars: StackLoader&amp;lt;Car&amp;gt;" style="text;strokeColor=none;fillColor=none;align=left;verticalAlign=top;spacingLeft=4;spacingRight=4;overflow=hidden;rotatable=0;points=[[0,0.5],[1,0.5]];portConstraint=eastwest;whiteSpace=wrap;html=1;" vertex="1" parent="OE6Sxg3GEj1yfLS4yZ16-35">
          <mxGeometry y="26" width="230" height="26" as="geometry" />
        </mxCell>
        <mxCell id="OE6Sxg3GEj1yfLS4yZ16-37" value="- rampUp: boolean" style="text;strokeColor=none;fillColor=none;align=left;verticalAlign=top;spacingLeft=4;spacingRight=4;overflow=hidden;rotatable=0;points=[[0,0.5],[1,0.5]];portConstraint=eastwest;whiteSpace=wrap;html=1;" vertex="1" parent="OE6Sxg3GEj1yfLS4yZ16-35">
          <mxGeometry y="52" width="230" height="26" as="geometry" />
        </mxCell>
        <mxCell id="OE6Sxg3GEj1yfLS4yZ16-44" value="" style="line;strokeWidth=1;fillColor=none;align=left;verticalAlign=middle;spacingTop=-1;spacingLeft=3;spacingRight=3;rotatable=0;labelPosition=right;points=[];portConstraint=eastwest;strokeColor=inherit;" vertex="1" parent="OE6Sxg3GEj1yfLS4yZ16-35">
          <mxGeometry y="78" width="230" height="8" as="geometry" />
        </mxCell>
        <mxCell id="OE6Sxg3GEj1yfLS4yZ16-45" value="+ getRampState(): boolean" style="text;strokeColor=none;fillColor=none;align=left;verticalAlign=top;spacingLeft=4;spacingRight=4;overflow=hidden;rotatable=0;points=[[0,0.5],[1,0.5]];portConstraint=eastwest;whiteSpace=wrap;html=1;" vertex="1" parent="OE6Sxg3GEj1yfLS4yZ16-35">
          <mxGeometry y="86" width="230" height="26" as="geometry" />
        </mxCell>
        <mxCell id="OE6Sxg3GEj1yfLS4yZ16-46" value="+ startEngine(): void" style="text;strokeColor=none;fillColor=none;align=left;verticalAlign=top;spacingLeft=4;spacingRight=4;overflow=hidden;rotatable=0;points=[[0,0.5],[1,0.5]];portConstraint=eastwest;whiteSpace=wrap;html=1;" vertex="1" parent="OE6Sxg3GEj1yfLS4yZ16-35">
          <mxGeometry y="112" width="230" height="26" as="geometry" />
        </mxCell>
        <mxCell id="OE6Sxg3GEj1yfLS4yZ16-47" value="+ incrementSpeed(amount: double): void" style="text;strokeColor=none;fillColor=none;align=left;verticalAlign=top;spacingLeft=4;spacingRight=4;overflow=hidden;rotatable=0;points=[[0,0.5],[1,0.5]];portConstraint=eastwest;whiteSpace=wrap;html=1;" vertex="1" parent="OE6Sxg3GEj1yfLS4yZ16-35">
          <mxGeometry y="138" width="230" height="26" as="geometry" />
        </mxCell>
        <mxCell id="OE6Sxg3GEj1yfLS4yZ16-48" value="+ speedFactor(): double" style="text;strokeColor=none;fillColor=none;align=left;verticalAlign=top;spacingLeft=4;spacingRight=4;overflow=hidden;rotatable=0;points=[[0,0.5],[1,0.5]];portConstraint=eastwest;whiteSpace=wrap;html=1;" vertex="1" parent="OE6Sxg3GEj1yfLS4yZ16-35">
          <mxGeometry y="164" width="230" height="26" as="geometry" />
        </mxCell>
        <mxCell id="OE6Sxg3GEj1yfLS4yZ16-49" value="+ raisePlatform(): void" style="text;strokeColor=none;fillColor=none;align=left;verticalAlign=top;spacingLeft=4;spacingRight=4;overflow=hidden;rotatable=0;points=[[0,0.5],[1,0.5]];portConstraint=eastwest;whiteSpace=wrap;html=1;" vertex="1" parent="OE6Sxg3GEj1yfLS4yZ16-35">
          <mxGeometry y="190" width="230" height="26" as="geometry" />
        </mxCell>
        <mxCell id="OE6Sxg3GEj1yfLS4yZ16-50" value="+ lowerPlatform(): void" style="text;strokeColor=none;fillColor=none;align=left;verticalAlign=top;spacingLeft=4;spacingRight=4;overflow=hidden;rotatable=0;points=[[0,0.5],[1,0.5]];portConstraint=eastwest;whiteSpace=wrap;html=1;" vertex="1" parent="OE6Sxg3GEj1yfLS4yZ16-35">
          <mxGeometry y="216" width="230" height="26" as="geometry" />
        </mxCell>
        <mxCell id="OE6Sxg3GEj1yfLS4yZ16-51" value="+ loadCar(car: Car): void" style="text;strokeColor=none;fillColor=none;align=left;verticalAlign=top;spacingLeft=4;spacingRight=4;overflow=hidden;rotatable=0;points=[[0,0.5],[1,0.5]];portConstraint=eastwest;whiteSpace=wrap;html=1;" vertex="1" parent="OE6Sxg3GEj1yfLS4yZ16-35">
          <mxGeometry y="242" width="230" height="26" as="geometry" />
        </mxCell>
        <mxCell id="OE6Sxg3GEj1yfLS4yZ16-52" value="+ unloadCar(): Car" style="text;strokeColor=none;fillColor=none;align=left;verticalAlign=top;spacingLeft=4;spacingRight=4;overflow=hidden;rotatable=0;points=[[0,0.5],[1,0.5]];portConstraint=eastwest;whiteSpace=wrap;html=1;" vertex="1" parent="OE6Sxg3GEj1yfLS4yZ16-35">
          <mxGeometry y="268" width="230" height="26" as="geometry" />
        </mxCell>
        <mxCell id="OE6Sxg3GEj1yfLS4yZ16-55" value="- validateRampOperation(): void" style="text;strokeColor=none;fillColor=none;align=left;verticalAlign=top;spacingLeft=4;spacingRight=4;overflow=hidden;rotatable=0;points=[[0,0.5],[1,0.5]];portConstraint=eastwest;whiteSpace=wrap;html=1;" vertex="1" parent="OE6Sxg3GEj1yfLS4yZ16-35">
          <mxGeometry y="294" width="230" height="26" as="geometry" />
        </mxCell>
        <mxCell id="OE6Sxg3GEj1yfLS4yZ16-56" value="- validateRampState(): void" style="text;strokeColor=none;fillColor=none;align=left;verticalAlign=top;spacingLeft=4;spacingRight=4;overflow=hidden;rotatable=0;points=[[0,0.5],[1,0.5]];portConstraint=eastwest;whiteSpace=wrap;html=1;" vertex="1" parent="OE6Sxg3GEj1yfLS4yZ16-35">
          <mxGeometry y="320" width="230" height="26" as="geometry" />
        </mxCell>
        <mxCell id="OE6Sxg3GEj1yfLS4yZ16-57" value="- validateTransporterState(): void" style="text;strokeColor=none;fillColor=none;align=left;verticalAlign=top;spacingLeft=4;spacingRight=4;overflow=hidden;rotatable=0;points=[[0,0.5],[1,0.5]];portConstraint=eastwest;whiteSpace=wrap;html=1;" vertex="1" parent="OE6Sxg3GEj1yfLS4yZ16-35">
          <mxGeometry y="346" width="230" height="26" as="geometry" />
        </mxCell>
        <mxCell id="OE6Sxg3GEj1yfLS4yZ16-53" value="- setCarPositionABitOff(car: Car): void" style="text;strokeColor=none;fillColor=none;align=left;verticalAlign=top;spacingLeft=4;spacingRight=4;overflow=hidden;rotatable=0;points=[[0,0.5],[1,0.5]];portConstraint=eastwest;whiteSpace=wrap;html=1;" vertex="1" parent="OE6Sxg3GEj1yfLS4yZ16-35">
          <mxGeometry y="372" width="230" height="26" as="geometry" />
        </mxCell>
        <mxCell id="6Fvowpb6cNLCwyPM5dSb-1" value="" style="endArrow=block;dashed=1;endFill=0;endSize=12;html=1;rounded=0;entryX=0.5;entryY=0;entryDx=0;entryDy=0;" edge="1" parent="1" target="cYzZMKrLPD-0MxN3_8T5-51">
          <mxGeometry width="160" relative="1" as="geometry">
            <mxPoint x="-5" y="510" as="sourcePoint" />
            <mxPoint x="-200" y="506.57" as="targetPoint" />
          </mxGeometry>
        </mxCell>
        <mxCell id="6Fvowpb6cNLCwyPM5dSb-29" value="Realization" style="edgeLabel;html=1;align=center;verticalAlign=middle;resizable=0;points=[];" connectable="0" vertex="1" parent="6Fvowpb6cNLCwyPM5dSb-1">
          <mxGeometry x="-0.2323" y="2" relative="1" as="geometry">
            <mxPoint as="offset" />
          </mxGeometry>
        </mxCell>
        <mxCell id="6Fvowpb6cNLCwyPM5dSb-2" value="" style="endArrow=block;dashed=1;endFill=0;endSize=12;html=1;rounded=0;entryX=0.5;entryY=1;entryDx=0;entryDy=0;exitX=0.5;exitY=0;exitDx=0;exitDy=0;" edge="1" parent="1" source="cYzZMKrLPD-0MxN3_8T5-42" target="cYzZMKrLPD-0MxN3_8T5-51">
          <mxGeometry width="160" relative="1" as="geometry">
            <mxPoint y="600" as="sourcePoint" />
            <mxPoint x="160" y="600" as="targetPoint" />
          </mxGeometry>
        </mxCell>
        <mxCell id="6Fvowpb6cNLCwyPM5dSb-28" value="Realization" style="edgeLabel;html=1;align=center;verticalAlign=middle;resizable=0;points=[];" connectable="0" vertex="1" parent="6Fvowpb6cNLCwyPM5dSb-2">
          <mxGeometry x="-0.1836" relative="1" as="geometry">
            <mxPoint as="offset" />
          </mxGeometry>
        </mxCell>
        <mxCell id="6Fvowpb6cNLCwyPM5dSb-5" value="Generalization" style="endArrow=block;endSize=16;endFill=0;html=1;rounded=0;entryX=0;entryY=0.5;entryDx=0;entryDy=0;exitX=1;exitY=0.5;exitDx=0;exitDy=0;" edge="1" parent="1" source="OE6Sxg3GEj1yfLS4yZ16-37" target="cYzZMKrLPD-0MxN3_8T5-10">
          <mxGeometry width="160" relative="1" as="geometry">
            <mxPoint x="110" y="190" as="sourcePoint" />
            <mxPoint x="290" y="280" as="targetPoint" />
            <Array as="points">
              <mxPoint x="170" y="175" />
              <mxPoint x="170" y="495" />
            </Array>
          </mxGeometry>
        </mxCell>
        <mxCell id="6Fvowpb6cNLCwyPM5dSb-17" value="" style="endArrow=classic;html=1;rounded=0;exitX=0.25;exitY=0;exitDx=0;exitDy=0;entryX=1;entryY=0.5;entryDx=0;entryDy=0;" edge="1" parent="1" source="zq9i1RVBZNLMBS9eF87K-2" target="cYzZMKrLPD-0MxN3_8T5-49">
          <mxGeometry width="50" height="50" relative="1" as="geometry">
            <mxPoint x="260" y="950" as="sourcePoint" />
            <mxPoint x="30" y="990" as="targetPoint" />
            <Array as="points">
              <mxPoint x="260" y="917" />
            </Array>
          </mxGeometry>
        </mxCell>
        <mxCell id="6Fvowpb6cNLCwyPM5dSb-26" value="Association" style="edgeLabel;html=1;align=center;verticalAlign=middle;resizable=0;points=[];" connectable="0" vertex="1" parent="6Fvowpb6cNLCwyPM5dSb-17">
          <mxGeometry x="0.1757" y="-1" relative="1" as="geometry">
            <mxPoint as="offset" />
          </mxGeometry>
        </mxCell>
        <mxCell id="6Fvowpb6cNLCwyPM5dSb-18" value="" style="endArrow=classic;html=1;rounded=0;" edge="1" parent="1">
          <mxGeometry width="50" height="50" relative="1" as="geometry">
            <mxPoint x="335" y="990" as="sourcePoint" />
            <mxPoint x="335" y="770" as="targetPoint" />
          </mxGeometry>
        </mxCell>
        <mxCell id="6Fvowpb6cNLCwyPM5dSb-27" value="Association" style="edgeLabel;html=1;align=center;verticalAlign=middle;resizable=0;points=[];" connectable="0" vertex="1" parent="6Fvowpb6cNLCwyPM5dSb-18">
          <mxGeometry x="-0.0777" y="-1" relative="1" as="geometry">
            <mxPoint as="offset" />
          </mxGeometry>
        </mxCell>
        <mxCell id="6Fvowpb6cNLCwyPM5dSb-19" value="" style="endArrow=classic;html=1;rounded=0;entryX=0;entryY=0.25;entryDx=0;entryDy=0;exitX=1;exitY=0.5;exitDx=0;exitDy=0;" edge="1" parent="1" source="zq9i1RVBZNLMBS9eF87K-8" target="cYzZMKrLPD-0MxN3_8T5-36">
          <mxGeometry width="50" height="50" relative="1" as="geometry">
            <mxPoint x="570" y="890" as="sourcePoint" />
            <mxPoint x="620" y="840" as="targetPoint" />
            <Array as="points">
              <mxPoint x="480" y="1080" />
              <mxPoint x="480" y="320" />
            </Array>
          </mxGeometry>
        </mxCell>
        <mxCell id="6Fvowpb6cNLCwyPM5dSb-24" value="Association" style="edgeLabel;html=1;align=center;verticalAlign=middle;resizable=0;points=[];" connectable="0" vertex="1" parent="6Fvowpb6cNLCwyPM5dSb-19">
          <mxGeometry x="-0.0781" y="5" relative="1" as="geometry">
            <mxPoint as="offset" />
          </mxGeometry>
        </mxCell>
        <mxCell id="6Fvowpb6cNLCwyPM5dSb-20" value="" style="endArrow=classic;html=1;rounded=0;exitX=1;exitY=0.5;exitDx=0;exitDy=0;" edge="1" parent="1" source="zq9i1RVBZNLMBS9eF87K-9">
          <mxGeometry width="50" height="50" relative="1" as="geometry">
            <mxPoint x="560" y="900" as="sourcePoint" />
            <mxPoint x="730" y="434" as="targetPoint" />
            <Array as="points">
              <mxPoint x="520" y="1107" />
              <mxPoint x="520" y="434" />
            </Array>
          </mxGeometry>
        </mxCell>
        <mxCell id="6Fvowpb6cNLCwyPM5dSb-23" value="Association" style="edgeLabel;html=1;align=center;verticalAlign=middle;resizable=0;points=[];" connectable="0" vertex="1" parent="6Fvowpb6cNLCwyPM5dSb-20">
          <mxGeometry x="-0.0711" y="4" relative="1" as="geometry">
            <mxPoint y="1" as="offset" />
          </mxGeometry>
        </mxCell>
        <mxCell id="6Fvowpb6cNLCwyPM5dSb-21" value="" style="endArrow=classic;html=1;rounded=0;entryX=0.005;entryY=0.076;entryDx=0;entryDy=0;entryPerimeter=0;exitX=1;exitY=0.5;exitDx=0;exitDy=0;" edge="1" parent="1" source="zq9i1RVBZNLMBS9eF87K-10" target="cYzZMKrLPD-0MxN3_8T5-53">
          <mxGeometry width="50" height="50" relative="1" as="geometry">
            <mxPoint x="560" y="910" as="sourcePoint" />
            <mxPoint x="610" y="860" as="targetPoint" />
            <Array as="points">
              <mxPoint x="560" y="1133" />
              <mxPoint x="560" y="624" />
            </Array>
          </mxGeometry>
        </mxCell>
        <mxCell id="6Fvowpb6cNLCwyPM5dSb-22" value="Association" style="edgeLabel;html=1;align=center;verticalAlign=middle;resizable=0;points=[];" connectable="0" vertex="1" parent="6Fvowpb6cNLCwyPM5dSb-21">
          <mxGeometry x="0.0969" y="-4" relative="1" as="geometry">
            <mxPoint as="offset" />
          </mxGeometry>
        </mxCell>
        <mxCell id="6Fvowpb6cNLCwyPM5dSb-30" value="" style="endArrow=classic;startArrow=classic;html=1;rounded=0;exitX=1;exitY=0.5;exitDx=0;exitDy=0;entryX=-0.002;entryY=0.859;entryDx=0;entryDy=0;entryPerimeter=0;" edge="1" parent="1" source="gwuU5ODGsPlOElXGlEPq-3" target="OE6Sxg3GEj1yfLS4yZ16-31">
          <mxGeometry width="50" height="50" relative="1" as="geometry">
            <mxPoint x="630" y="1130" as="sourcePoint" />
            <mxPoint x="680" y="1080" as="targetPoint" />
          </mxGeometry>
        </mxCell>
        <mxCell id="6Fvowpb6cNLCwyPM5dSb-31" value="Association" style="edgeLabel;html=1;align=center;verticalAlign=middle;resizable=0;points=[];" connectable="0" vertex="1" parent="6Fvowpb6cNLCwyPM5dSb-30">
          <mxGeometry x="-0.0948" y="1" relative="1" as="geometry">
            <mxPoint x="1" as="offset" />
          </mxGeometry>
        </mxCell>
        <mxCell id="6Fvowpb6cNLCwyPM5dSb-33" value="Generalization" style="endArrow=block;endSize=16;endFill=0;html=1;rounded=0;entryX=0.5;entryY=1;entryDx=0;entryDy=0;exitX=0.093;exitY=0.019;exitDx=0;exitDy=0;exitPerimeter=0;" edge="1" parent="1" source="jZX_VQ2PAZwI73pIx6gz-1" target="OE6Sxg3GEj1yfLS4yZ16-26">
          <mxGeometry width="160" relative="1" as="geometry">
            <mxPoint x="655" y="1140" as="sourcePoint" />
            <mxPoint x="1060" y="1161" as="targetPoint" />
          </mxGeometry>
        </mxCell>
        <mxCell id="6Fvowpb6cNLCwyPM5dSb-34" value="Generalization" style="endArrow=block;endSize=16;endFill=0;html=1;rounded=0;entryX=1;entryY=0.5;entryDx=0;entryDy=0;exitX=-0.024;exitY=0.981;exitDx=0;exitDy=0;exitPerimeter=0;" edge="1" parent="1" source="OE6Sxg3GEj1yfLS4yZ16-18" target="OE6Sxg3GEj1yfLS4yZ16-25">
          <mxGeometry width="160" relative="1" as="geometry">
            <mxPoint x="1020" y="900" as="sourcePoint" />
            <mxPoint x="1010" y="1010" as="targetPoint" />
            <mxPoint as="offset" />
          </mxGeometry>
        </mxCell>
        <mxCell id="6Fvowpb6cNLCwyPM5dSb-36" value="&lt;b&gt;BufferedImage&lt;/b&gt;" style="html=1;whiteSpace=wrap;" vertex="1" parent="1">
          <mxGeometry x="1400" y="844" width="110" height="30" as="geometry" />
        </mxCell>
        <mxCell id="6Fvowpb6cNLCwyPM5dSb-37" value="" style="endArrow=classic;html=1;rounded=0;exitX=0.75;exitY=0;exitDx=0;exitDy=0;entryX=0;entryY=0.5;entryDx=0;entryDy=0;" edge="1" parent="1" source="jZX_VQ2PAZwI73pIx6gz-1" target="OE6Sxg3GEj1yfLS4yZ16-10">
          <mxGeometry width="50" height="50" relative="1" as="geometry">
            <mxPoint x="777" y="1130" as="sourcePoint" />
            <mxPoint x="827" y="1080" as="targetPoint" />
            <Array as="points">
              <mxPoint x="833" y="1075" />
            </Array>
          </mxGeometry>
        </mxCell>
        <mxCell id="6Fvowpb6cNLCwyPM5dSb-38" value="Association" style="edgeLabel;html=1;align=center;verticalAlign=middle;resizable=0;points=[];" connectable="0" vertex="1" parent="6Fvowpb6cNLCwyPM5dSb-37">
          <mxGeometry x="-0.1511" y="-1" relative="1" as="geometry">
            <mxPoint x="1" as="offset" />
          </mxGeometry>
        </mxCell>
        <mxCell id="6Fvowpb6cNLCwyPM5dSb-40" value="Association" style="endArrow=classic;html=1;rounded=0;entryX=0;entryY=0.5;entryDx=0;entryDy=0;exitX=1;exitY=0.5;exitDx=0;exitDy=0;" edge="1" parent="1" source="OE6Sxg3GEj1yfLS4yZ16-30" target="OE6Sxg3GEj1yfLS4yZ16-27">
          <mxGeometry width="50" height="50" relative="1" as="geometry">
            <mxPoint x="900" y="1140" as="sourcePoint" />
            <mxPoint x="950" y="1090" as="targetPoint" />
          </mxGeometry>
        </mxCell>
        <mxCell id="6Fvowpb6cNLCwyPM5dSb-41" value="Association" style="endArrow=classic;html=1;rounded=0;entryX=0;entryY=0.5;entryDx=0;entryDy=0;exitX=1;exitY=0.5;exitDx=0;exitDy=0;" edge="1" parent="1" source="jZX_VQ2PAZwI73pIx6gz-4" target="OE6Sxg3GEj1yfLS4yZ16-28">
          <mxGeometry width="50" height="50" relative="1" as="geometry">
            <mxPoint x="910" y="1221" as="sourcePoint" />
            <mxPoint x="1010" y="1221" as="targetPoint" />
          </mxGeometry>
        </mxCell>
        <mxCell id="6Fvowpb6cNLCwyPM5dSb-42" value="Association" style="endArrow=classic;html=1;rounded=0;exitX=1;exitY=0.5;exitDx=0;exitDy=0;entryX=0;entryY=0.5;entryDx=0;entryDy=0;" edge="1" parent="1" source="OE6Sxg3GEj1yfLS4yZ16-33" target="OE6Sxg3GEj1yfLS4yZ16-29">
          <mxGeometry width="50" height="50" relative="1" as="geometry">
            <mxPoint x="910" y="1281" as="sourcePoint" />
            <mxPoint x="990" y="1320" as="targetPoint" />
          </mxGeometry>
        </mxCell>
        <mxCell id="6Fvowpb6cNLCwyPM5dSb-44" value="Association" style="endArrow=classic;html=1;rounded=0;entryX=0;entryY=0.5;entryDx=0;entryDy=0;exitX=1;exitY=0.5;exitDx=0;exitDy=0;" edge="1" parent="1" source="OE6Sxg3GEj1yfLS4yZ16-4" target="6Fvowpb6cNLCwyPM5dSb-36">
          <mxGeometry width="50" height="50" relative="1" as="geometry">
            <mxPoint x="910" y="1221" as="sourcePoint" />
            <mxPoint x="1010" y="1221" as="targetPoint" />
          </mxGeometry>
        </mxCell>
        <mxCell id="6Fvowpb6cNLCwyPM5dSb-45" value="" style="endArrow=block;dashed=1;endFill=0;endSize=12;html=1;rounded=0;exitX=1;exitY=0.5;exitDx=0;exitDy=0;entryX=0;entryY=0.5;entryDx=0;entryDy=0;" edge="1" parent="1" source="cYzZMKrLPD-0MxN3_8T5-96" target="cYzZMKrLPD-0MxN3_8T5-119">
          <mxGeometry width="160" relative="1" as="geometry">
            <mxPoint x="1460" y="260" as="sourcePoint" />
            <mxPoint x="1620" y="260" as="targetPoint" />
          </mxGeometry>
        </mxCell>
        <mxCell id="6Fvowpb6cNLCwyPM5dSb-47" value="Realization" style="edgeLabel;html=1;align=center;verticalAlign=middle;resizable=0;points=[];" connectable="0" vertex="1" parent="6Fvowpb6cNLCwyPM5dSb-45">
          <mxGeometry x="-0.0637" y="-1" relative="1" as="geometry">
            <mxPoint x="-1" as="offset" />
          </mxGeometry>
        </mxCell>
        <mxCell id="ac9rGsB_pq7JvZUF_nld-9" value="TimeListemer" style="swimlane;fontStyle=1;align=center;verticalAlign=top;childLayout=stackLayout;horizontal=1;startSize=26;horizontalStack=0;resizeParent=1;resizeParentMax=0;resizeLast=0;collapsible=1;marginBottom=0;whiteSpace=wrap;html=1;" vertex="1" parent="1">
          <mxGeometry x="198" y="1362" width="224" height="60" as="geometry" />
        </mxCell>
        <mxCell id="ac9rGsB_pq7JvZUF_nld-11" value="" style="line;strokeWidth=1;fillColor=none;align=left;verticalAlign=middle;spacingTop=-1;spacingLeft=3;spacingRight=3;rotatable=0;labelPosition=right;points=[];portConstraint=eastwest;strokeColor=inherit;" vertex="1" parent="ac9rGsB_pq7JvZUF_nld-9">
          <mxGeometry y="26" width="224" height="8" as="geometry" />
        </mxCell>
        <mxCell id="ac9rGsB_pq7JvZUF_nld-12" value="+ actionPerformed(e: actionEvent): void" style="text;strokeColor=none;fillColor=none;align=left;verticalAlign=top;spacingLeft=4;spacingRight=4;overflow=hidden;rotatable=0;points=[[0,0.5],[1,0.5]];portConstraint=eastwest;whiteSpace=wrap;html=1;" vertex="1" parent="ac9rGsB_pq7JvZUF_nld-9">
          <mxGeometry y="34" width="224" height="26" as="geometry" />
        </mxCell>
        <mxCell id="q-14viGS4lYBoPyD0MVI-1" value="Use" style="endArrow=open;endSize=12;dashed=1;html=1;rounded=0;entryX=0;entryY=0.5;entryDx=0;entryDy=0;exitX=1;exitY=0.5;exitDx=0;exitDy=0;" edge="1" parent="1" source="cYzZMKrLPD-0MxN3_8T5-55" target="cYzZMKrLPD-0MxN3_8T5-92">
          <mxGeometry width="160" relative="1" as="geometry">
            <mxPoint x="928" y="648.33" as="sourcePoint" />
            <mxPoint x="1088" y="648.33" as="targetPoint" />
            <Array as="points">
              <mxPoint x="990" y="675" />
              <mxPoint x="990" y="159" />
            </Array>
          </mxGeometry>
        </mxCell>
        <mxCell id="SzvQUFgtP2D9Fh6m5ksj-3" style="edgeStyle=orthogonalEdgeStyle;rounded=0;orthogonalLoop=1;jettySize=auto;html=1;entryX=0.468;entryY=1.244;entryDx=0;entryDy=0;entryPerimeter=0;dashed=1;endArrow=open;endFill=0;" edge="1" parent="1" source="cYzZMKrLPD-0MxN3_8T5-54" target="cYzZMKrLPD-0MxN3_8T5-27">
          <mxGeometry relative="1" as="geometry">
            <Array as="points">
              <mxPoint x="546" y="649" />
            </Array>
          </mxGeometry>
        </mxCell>
      </root>
    </mxGraphModel>
  </diagram>
</mxfile>
